<svg width="275" height="150" viewBox="0 0 275 150" fill="none" xmlns="http://www.w3.org/2000/svg">
<g clip-path="url(#clip0_103_3)">
<rect width="275" height="150" fill="#DA5527"/>
<path d="M276.004 36.4065H1.00378V111.955H276.004V36.4065Z" fill="url(#paint0_linear_103_3)"/>
<path d="M246.644 94.948C246.644 88.5986 242.563 83.4514 237.53 83.4514C232.496 83.4514 228.415 88.5986 228.415 94.948V103.326C228.415 109.675 232.496 114.822 237.53 114.822C242.563 114.822 246.644 109.675 246.644 103.326V94.948Z" fill="#EAEAEA"/>
<path d="M224.313 94.9613C224.313 88.6119 220.233 83.4647 215.199 83.4647C210.165 83.4647 206.085 88.6119 206.085 94.9613V103.339C206.085 109.688 210.165 114.835 215.199 114.835C220.233 114.835 224.313 109.688 224.313 103.339V94.9613Z" fill="#EAEAEA"/>
<path d="M200.858 94.9373C200.858 88.5879 196.777 83.4407 191.744 83.4407C186.71 83.4407 182.63 88.5879 182.63 94.9373V103.315C182.63 109.664 186.71 114.811 191.744 114.811C196.777 114.811 200.858 109.664 200.858 103.315V94.9373Z" fill="#EAEAEA"/>
<path d="M116.856 88.7825C116.856 84.3305 113.86 80.7214 110.165 80.7214C106.47 80.7214 103.475 84.3305 103.475 88.7825V102.625C103.475 107.077 106.47 110.686 110.165 110.686C113.86 110.686 116.856 107.077 116.856 102.625V88.7825Z" fill="#EAEAEA"/>
<path d="M149.978 88.7303C149.978 84.2783 146.983 80.6692 143.288 80.6692C139.593 80.6692 136.597 84.2783 136.597 88.7303V102.573C136.597 107.025 139.593 110.634 143.288 110.634C146.983 110.634 149.978 107.025 149.978 102.573V88.7303Z" fill="#EAEAEA"/>
<path d="M246.629 103.939H77.6737V117.197H246.629V103.939Z" fill="#EAEAEA"/>
<path d="M85.7526 0.0357056H39.3212C35.6708 0.0357056 32.7115 3.00367 32.7115 6.66483C32.7115 10.326 35.6708 13.294 39.3212 13.294H85.7526C89.403 13.294 92.3623 10.326 92.3623 6.66483C92.3623 3.00367 89.403 0.0357056 85.7526 0.0357056Z" fill="#EAEAEA"/>
<path d="M32.1613 6.62912L31.9332 143.322C31.9271 146.983 34.8814 149.962 38.5317 149.976C42.1821 149.989 45.1463 147.032 45.1524 143.371L45.3805 6.67773C45.3866 3.01656 42.4324 0.0377101 38.782 0.024285C35.1316 0.0108599 32.1674 2.96794 32.1613 6.62912Z" fill="#EAEAEA"/>
<path d="M175.541 124.454H151.573C147.922 124.454 144.963 127.422 144.963 131.084C144.963 134.745 147.922 137.713 151.573 137.713H175.541C179.191 137.713 182.15 134.745 182.15 131.084C182.15 127.422 179.191 124.454 175.541 124.454Z" fill="#EAEAEA"/>
<path d="M78.3387 136.632H38.0063V149.891H78.3387V136.632Z" fill="#EAEAEA"/>
<path d="M143.696 61.0051H112.106V74.2634H143.696V61.0051Z" fill="#EAEAEA"/>
<path d="M143.848 80.6708H109.779V93.929H143.848V80.6708Z" fill="#EAEAEA"/>
<path d="M119.244 67.6759L119.358 6.79873C119.365 3.13757 116.412 0.164035 112.761 0.157149C109.111 0.150263 106.146 3.11264 106.139 6.7738L106.025 67.6509C106.018 71.3121 108.972 74.2856 112.622 74.2925C116.273 74.2994 119.237 71.337 119.244 67.6759Z" fill="#EAEAEA"/>
<path d="M84.5379 143.279L84.6368 110.618C84.6479 106.957 81.6976 103.985 78.0472 103.981C74.3968 103.977 71.4286 106.941 71.4175 110.602L71.3186 143.264C71.3076 146.925 74.2578 149.897 77.9082 149.901C81.5586 149.905 84.5268 146.941 84.5379 143.279Z" fill="#EAEAEA"/>
<path d="M149.463 67.6726L149.577 6.79544C149.584 3.13428 146.63 0.160739 142.98 0.153853C139.33 0.146967 136.365 3.10934 136.358 6.7705L136.244 67.6476C136.237 71.3088 139.191 74.2823 142.841 74.2892C146.491 74.2961 149.456 71.3337 149.463 67.6726Z" fill="#EAEAEA"/>
</g>
<defs>
<linearGradient id="paint0_linear_103_3" x1="1.00378" y1="74.1808" x2="276.004" y2="74.1808" gradientUnits="userSpaceOnUse">
<stop stop-color="#E1B462"/>
<stop offset="1" stop-color="#1C7FFC" stop-opacity="0.282353"/>
</linearGradient>
<clipPath id="clip0_103_3">
<rect width="275" height="150" fill="white"/>
</clipPath>
</defs>
</svg>
